<svg version="1.1" xmlns="http://www.w3.org/2000/svg" viewBox="-22.213204435596428 -8.921181572906352 44.426408871192855 17.842362997290575" fill="none" stroke="black" stroke-width="0.6%" vector-effect="non-scaling-stroke">
    <path d="M -7.07107 -4.95074 L -21.2132 -6.93103" />
    <path d="M -21.2132 -2.97044 L -21.2132 -6.93103" />
    <path d="M -21.2132 6.93103 L -14.14214 7.92118 L 0 5.94089 L 0 0.99015" />
    <path d="M 0 5.94089 L 14.14214 7.92118 L 21.2132 6.93103 L 21.2132 -2.97044 L 7.07107 -4.95074 L 21.2132 -6.93103 L 14.14214 -7.92118 L 0 -5.94089 L -14.14214 -7.92118 L -21.2132 -6.93103" />
    <path d="M -21.2132 6.93103 L -21.2132 -2.97044 L -14.14214 -1.98029 L 0 -3.96059 L 0 0.99015" />
    <path d="M -7.07107 -4.95074 L -21.2132 -2.97044" />
    <path d="M 14.14214 -1.98029 L 0 -3.96059" />
    <path d="M 14.14214 -1.98029 L 21.2132 -2.97044 L 21.2132 -6.93103" />
    <path d="M -14.14214 7.92118 L -14.14214 -1.98029" />
    <path d="M 14.14214 7.92118 L 14.14214 -1.98029" />
</svg>